<?xml version="1.0" encoding="UTF-8" standalone="no"?>
<!-- Generator: Adobe Illustrator 25.0.0, SVG Export Plug-In . SVG Version: 6.00 Build 0)  -->

<svg
   version="1.1"
   id="Layer_1"
   x="0px"
   y="0px"
   viewBox="0 0 187.39999 262"
   xml:space="preserve"
   width="187.39999"
   height="262"
   xmlns="http://www.w3.org/2000/svg"
   xmlns:svg="http://www.w3.org/2000/svg"><defs
   id="defs63" />
<style
   type="text/css"
   id="style2">
	.st0{fill-rule:evenodd;clip-rule:evenodd;fill:#13BEF9;}
	.st1{fill:#13BEF9;}
</style>
<g
   id="g58"
   transform="translate(-21.8,-19)">
	<polygon
   class="st0"
   points="80.3,97.3 84.3,97.3 84.3,76.6 80.3,76.6 "
   id="polygon4" />
	<polygon
   class="st0"
   points="97.5,97.3 101.5,97.3 101.5,76.6 97.5,76.6 "
   id="polygon6" />
	<polygon
   class="st0"
   points="52.5,69.5 56.6,76.6 125,37.1 120.9,30 "
   id="polygon8" />
	<polygon
   class="st0"
   points="197.1,69.5 193,76.6 124.6,37.1 128.7,30 "
   id="polygon10" />
	<polygon
   class="st0"
   points="21.8,68.5 21.8,76.7 209.2,76.7 209.2,68.5 "
   id="polygon12" />
	<path
   class="st0"
   d="M 135,192.5 V 71 h 8.2 v 127.4 c -2.2,-2.5 -5,-4.3 -8.2,-5.9 z"
   id="path14" />
	<path
   class="st0"
   d="M 121,190.4 V 19 h 8.2 v 172.4 c -2.3,-1.1 -7.9,-1 -8.2,-1 z"
   id="path16" />
	<path
   class="st0"
   d="m 43.3,207.5 c -10,-7.4 -16.6,-19.2 -16.6,-32.6 0,-7.1 1.9,-14.1 5.4,-20.2 h 70 c 3.6,6.1 5.4,13.1 5.4,20.2 0,6.2 -0.8,12 -3.3,17.2 -5.3,-5.1 -13.1,-7.3 -21,-7.3 -14,0 -26,8.7 -29.1,21.7 -1.1,-0.1 -1.8,-0.2 -2.9,-0.2 -2.7,0.1 -5.3,0.5 -7.9,1.2 z"
   id="path18" />
	
	
	
	
	
	
	
	
	
	
	
	
	<polygon
   class="st0"
   points="56.5,127.8 77.7,127.8 77.7,106.5 56.5,106.5 "
   id="polygon44" />
	<polygon
   class="st0"
   points="32.6,127.8 53.8,127.8 53.8,106.5 32.6,106.5 "
   id="polygon46" />
	<polygon
   class="st0"
   points="32.6,151.5 53.8,151.5 53.8,130.2 32.6,130.2 "
   id="polygon48" />
	<polygon
   class="st0"
   points="56.5,151.5 77.7,151.5 77.7,130.2 56.5,130.2 "
   id="polygon50" />
	<polygon
   class="st0"
   points="80.3,151.5 101.5,151.5 101.5,130.2 80.3,130.2 "
   id="polygon52" />
	<polygon
   class="st0"
   points="80.3,116.4 101.5,116.4 101.5,95.1 80.3,95.1 "
   id="polygon54" />
	<path
   class="st0"
   d="m 57.6,210.7 c 2.9,-12.3 14,-21.5 27.2,-21.5 8.5,0 16.1,3.8 21.3,9.8 4.5,-3.1 9.9,-4.9 15.8,-4.9 15.4,0 27.9,12.5 27.9,27.9 0,3.2 -0.5,6.2 -1.5,9.1 3.4,4.6 5.5,10.4 5.5,16.6 0,15.4 -12.5,27.9 -27.9,27.9 -6.8,0 -13,-2.4 -17.8,-6.4 -5.1,7.1 -13.4,11.8 -22.8,11.8 -10.8,0 -20.2,-6.2 -24.9,-15.2 -1.9,0.4 -3.8,0.6 -5.8,0.6 -15.4,0 -28,-12.5 -28,-27.9 0,-15.4 12.5,-27.9 28,-27.9 1,-0.1 2,-0.1 3,0.1 z"
   id="path56" />
</g>
</svg>
